# xmcd
#
# Track frame offsets: 
#        150
#        13842
#        36761
#        53233
#        69546
#        91591
#        106725
#        141290
#        162023
#        180113
#        198973
#
# Disc length: 2860 seconds
#
# Revision: 0
# Processed by: cddbd v1.4PL0 Copyright (c) Steve Scherf et al.
# Submitted via: ExactAudioCopy v0.90b4
#
DISCID=810b2a0b
DTITLE=Van Morrison - The Wolftrap Vienna, disc 1
DYEAR=1986
DGENRE=Celtic
TTITLE0=Lark Ascending
TTITLE1=Got To Go Back
TTITLE2=Moondance
TTITLE3=Tore Down A La Rimbaud
TTITLE4=Vanlose Stairway
TTITLE5=Northern Muse (Solid Ground)
TTITLE6=It's All In The Game
TTITLE7=Help Me
TTITLE8=Dweller On The Threshold
TTITLE9=Beautiful Vision
TTITLE10=She Gives Me Religion
EXTD=
EXTT0=
EXTT1=
EXTT2=
EXTT3=
EXTT4=
EXTT5=
EXTT6=
EXTT7=
EXTT8=
EXTT9=
EXTT10=
PLAYORDER=
